<svg width="19" height="23" viewBox="0 0 19 23" fill="none" xmlns="http://www.w3.org/2000/svg">
<path d="M18.4183 17.2304C18.0928 18.0029 17.7075 18.7139 17.2612 19.3676C16.6527 20.2588 16.1546 20.8757 15.7706 21.2183C15.1755 21.7806 14.5378 22.0685 13.855 22.0849C13.3648 22.0849 12.7736 21.9416 12.0855 21.6509C11.3951 21.3616 10.7606 21.2183 10.1804 21.2183C9.57199 21.2183 8.91945 21.3616 8.22147 21.6509C7.52243 21.9416 6.95929 22.0931 6.52874 22.1081C5.87393 22.1368 5.22126 21.8406 4.56978 21.2183C4.15397 20.8457 3.63387 20.207 3.01082 19.3021C2.34233 18.3359 1.79274 17.2154 1.36219 15.938C0.901076 14.5582 0.669922 13.2221 0.669922 11.9285C0.669922 10.4468 0.981581 9.16882 1.60583 8.09789C2.09643 7.23767 2.74911 6.5591 3.56598 6.06096C4.38286 5.56282 5.2655 5.30897 6.21602 5.29273C6.73611 5.29273 7.41815 5.458 8.26571 5.78282C9.11088 6.10873 9.65356 6.274 9.89149 6.274C10.0694 6.274 10.6722 6.08075 11.6942 5.69548C12.6607 5.33818 13.4764 5.19024 14.1446 5.24851C15.9553 5.39864 17.3156 6.13193 18.2203 7.45303C16.6009 8.46105 15.7999 9.87291 15.8158 11.6841C15.8304 13.0949 16.3286 14.2688 17.3077 15.201C17.7514 15.6336 18.2469 15.968 18.7982 16.2055C18.6787 16.5617 18.5524 16.9029 18.4183 17.2304V17.2304ZM14.2655 0.442326C14.2655 1.54808 13.8722 2.58052 13.0885 3.53613C12.1426 4.67217 10.9985 5.32862 9.75785 5.22504C9.74204 5.09238 9.73287 4.95277 9.73287 4.80605C9.73287 3.74453 10.1827 2.60849 10.9815 1.67963C11.3803 1.20933 11.8875 0.81828 12.5026 0.506333C13.1164 0.199041 13.6969 0.0291014 14.2429 0C14.2588 0.147822 14.2655 0.295653 14.2655 0.442312V0.442326Z" fill="black"/>
</svg>
