<svg width="32" height="35" viewBox="0 0 32 35" fill="none" xmlns="http://www.w3.org/2000/svg">
<path d="M28.6184 26.0001H2.96053C1.32547 26.0001 0 27.3433 0 29.0001V32.0001C0 33.657 1.32547 35.0001 2.96053 35.0001H28.6184C30.2535 35.0001 31.5789 33.657 31.5789 32.0001V29.0001C31.5789 27.3433 30.2535 26.0001 28.6184 26.0001Z" fill="black"/>
<path d="M21.654 13.2616L9.85698 14.3075C8.22814 14.4519 7.02324 15.907 7.16574 17.5576L7.30155 19.1305C7.44405 20.781 8.88 22.002 10.5088 21.8576L22.3059 20.8117C23.9347 20.6673 25.1396 19.2122 24.9971 17.5617L24.8613 15.9888C24.7188 14.3382 23.2829 13.1172 21.654 13.2616Z" fill="black"/>
<path d="M11.1214 2.67302L10.2254 4.45503C9.4831 5.9313 10.0624 7.73783 11.5192 8.49002L13.2778 9.398C14.7346 10.1502 16.5174 9.56322 17.2597 8.08696L18.1557 6.30494C18.898 4.82867 18.3187 3.02215 16.8619 2.26995L15.1033 1.36197C13.6465 0.609774 11.8637 1.19675 11.1214 2.67302Z" fill="black"/>
</svg>
