<svg width="20" height="20" viewBox="0 0 20 20" fill="none" xmlns="http://www.w3.org/2000/svg">
<path d="M10 1.83333C12.6667 1.83333 13 1.83333 14.0833 1.91667C16.8333 2 18.0833 3.33333 18.1667 6C18.25 7.08333 18.25 7.33333 18.25 10C18.25 12.6667 18.25 13 18.1667 14C18.0833 16.6667 16.75 18 14.0833 18.0833C13 18.1667 12.75 18.1667 10 18.1667C7.33333 18.1667 7 18.1667 6 18.0833C3.25 18 2 16.6667 1.91667 14C1.83333 12.9167 1.83333 12.6667 1.83333 10C1.83333 7.33333 1.83333 7 1.91667 6C2 3.33333 3.33333 2 6 1.91667C7 1.83333 7.33333 1.83333 10 1.83333ZM10 0C7.25 0 6.91667 0 5.91667 0.0833333C2.25 0.25 0.25 2.25 0.0833333 5.91667C0 6.91667 0 7.25 0 10C0 12.75 0 13.0833 0.0833333 14.0833C0.25 17.75 2.25 19.75 5.91667 19.9167C6.91667 20 7.25 20 10 20C12.75 20 13.0833 20 14.0833 19.9167C17.75 19.75 19.75 17.75 19.9167 14.0833C20 13.0833 20 12.75 20 10C20 7.25 20 6.91667 19.9167 5.91667C19.75 2.25 17.75 0.25 14.0833 0.0833333C13.0833 0 12.75 0 10 0ZM10 4.83333C7.16667 4.83333 4.83333 7.16667 4.83333 10C4.83333 12.8333 7.16667 15.1667 10 15.1667C12.8333 15.1667 15.1667 12.8333 15.1667 10C15.1667 7.16667 12.8333 4.83333 10 4.83333ZM10 13.3333C8.16667 13.3333 6.66667 11.8333 6.66667 10C6.66667 8.16667 8.16667 6.66667 10 6.66667C11.8333 6.66667 13.3333 8.16667 13.3333 10C13.3333 11.8333 11.8333 13.3333 10 13.3333ZM15.3333 3.5C14.6667 3.5 14.1667 4 14.1667 4.66667C14.1667 5.33333 14.6667 5.83333 15.3333 5.83333C16 5.83333 16.5 5.33333 16.5 4.66667C16.5 4 16 3.5 15.3333 3.5Z" fill="black"/>
</svg>
