<svg width="25" height="21" viewBox="0 0 25 21" fill="none" xmlns="http://www.w3.org/2000/svg">
<path d="M7.86228 20.3181C17.2967 20.3181 22.456 12.5018 22.456 5.72433C22.456 5.50226 22.4515 5.28132 22.4412 5.06125C23.4427 4.33732 24.3133 3.43369 25 2.40551C24.081 2.81383 23.0921 3.08878 22.0545 3.21275C23.1134 2.57782 23.9266 1.57297 24.3102 0.375328C23.319 0.963058 22.2214 1.39014 21.0534 1.62045C20.117 0.623557 18.784 0 17.3092 0C14.4763 0 12.1791 2.29718 12.1791 5.12863C12.1791 5.53126 12.2243 5.92251 12.3119 6.29812C8.04937 6.08402 4.26936 4.04274 1.73987 0.939458C1.29886 1.69722 1.04495 2.57811 1.04495 3.51728C1.04495 5.29668 1.95057 6.86766 3.32763 7.78693C2.48627 7.76105 1.6958 7.5296 1.00457 7.14517C1.00343 7.1665 1.00343 7.18811 1.00343 7.21057C1.00343 9.69485 2.77174 11.7688 5.1184 12.2388C4.68762 12.3563 4.23439 12.4194 3.76636 12.4194C3.43596 12.4194 3.11466 12.3864 2.80217 12.327C3.45501 14.3646 5.34871 15.8477 7.59386 15.8895C5.83806 17.2654 3.62647 18.0851 1.22351 18.0851C0.809799 18.0851 0.401488 18.0615 0 18.0141C2.26988 19.4687 4.96514 20.3181 7.86228 20.3181Z" fill="black"/>
</svg>
