<svg width="20" height="20" viewBox="0 0 20 20" fill="none" xmlns="http://www.w3.org/2000/svg">
<path fill-rule="evenodd" clip-rule="evenodd" d="M19.6 10.2273C19.6 9.51819 19.5364 8.83637 19.4182 8.18182H10V12.05H15.3818C15.15 13.3 14.4455 14.3591 13.3864 15.0682V17.5773H16.6182C18.5091 15.8364 19.6 13.2727 19.6 10.2273Z" fill="#4285F4"/>
<path fill-rule="evenodd" clip-rule="evenodd" d="M9.99984 19.9998C12.6998 19.9998 14.9635 19.1044 16.618 17.5771L13.3862 15.068C12.4908 15.668 11.3453 16.0226 9.99984 16.0226C7.3953 16.0226 5.19075 14.2635 4.40439 11.8998H1.06348V14.4908C2.70893 17.7589 6.09075 19.9998 9.99984 19.9998Z" fill="#34A853"/>
<path fill-rule="evenodd" clip-rule="evenodd" d="M4.40455 11.9001C4.20455 11.3001 4.09091 10.6592 4.09091 10.0001C4.09091 9.34097 4.20455 8.70006 4.40455 8.10006V5.50916H1.06364C0.386364 6.85916 0 8.38643 0 10.0001C0 11.6137 0.386364 13.141 1.06364 14.491L4.40455 11.9001Z" fill="#FBBC05"/>
<path fill-rule="evenodd" clip-rule="evenodd" d="M9.99984 3.97727C11.468 3.97727 12.7862 4.48182 13.8226 5.47273L16.6907 2.60455C14.9589 0.990909 12.6953 0 9.99984 0C6.09075 0 2.70893 2.24091 1.06348 5.50909L4.40439 8.1C5.19075 5.73636 7.39529 3.97727 9.99984 3.97727Z" fill="#EA4335"/>
</svg>
