<svg width="177" height="35" viewBox="0 0 177 35" fill="none" xmlns="http://www.w3.org/2000/svg">
<g clip-path="url(#clip0_151_143)">
<path d="M60.5544 17.6199C61.1347 17.9679 61.5965 18.4419 61.9399 19.0419C62.2952 19.6299 62.4728 20.2839 62.4728 21.0039C62.4728 21.5559 62.3663 22.0779 62.1531 22.5699C61.9399 23.0499 61.6439 23.4699 61.2649 23.8299C60.8978 24.1899 60.4656 24.4779 59.9682 24.6939C59.4827 24.8979 58.9557 24.9999 58.3873 24.9999H46.5571H44.4077V11.1399H57.3571C57.9255 11.1399 58.4524 11.2479 58.938 11.4639C59.4353 11.6679 59.8676 11.9499 60.2347 12.3099C60.6136 12.6699 60.9097 13.0959 61.1228 13.5879C61.336 14.0679 61.4426 14.5839 61.4426 15.1359C61.4426 15.6039 61.3597 16.0479 61.1939 16.4679C61.0399 16.8879 60.8268 17.2719 60.5544 17.6199ZM46.5571 17.0259H57.3571C57.6176 17.0259 57.8663 16.9779 58.1031 16.8819C58.3399 16.7859 58.5413 16.6539 58.7071 16.4859C58.8847 16.3059 59.0209 16.1019 59.1156 15.8739C59.2222 15.6459 59.2755 15.3999 59.2755 15.1359C59.2755 14.8839 59.2222 14.6439 59.1156 14.4159C59.0209 14.1879 58.8847 13.9899 58.7071 13.8219C58.5413 13.6419 58.3399 13.5039 58.1031 13.4079C57.8663 13.3119 57.6176 13.2639 57.3571 13.2639H46.5571V17.0259ZM60.3057 21.0039C60.3057 20.7519 60.2524 20.5119 60.1459 20.2839C60.0511 20.0559 59.9149 19.8579 59.7373 19.6899C59.5715 19.5099 59.3702 19.3719 59.1334 19.2759C58.8965 19.1799 58.6478 19.1319 58.3873 19.1319H46.5571V22.8939H58.3873C58.6478 22.8939 58.8965 22.8459 59.1334 22.7499C59.3702 22.6539 59.5715 22.5219 59.7373 22.3539C59.9149 22.1739 60.0511 21.9699 60.1459 21.7419C60.2524 21.5139 60.3057 21.2679 60.3057 21.0039ZM78.2321 24.9999L76.5269 21.5259H68.3913L66.6683 24.9999H64.2525L71.1091 11.1399H73.7913L80.6479 24.9999H78.2321ZM69.4394 19.4199H75.4788L72.4591 13.2999L69.4394 19.4199ZM84.5814 22.8939H99.4666V24.9999H82.4319V11.1399H84.5814V22.8939ZM115.216 24.9999L113.51 21.5259H105.375L103.652 24.9999H101.236L108.093 11.1399H110.775L117.631 24.9999H115.216ZM106.423 19.4199H112.462L109.443 13.2999L106.423 19.4199ZM134.39 11.1399H136.539V24.9999H134.39L121.565 14.0199V24.9999H119.416V11.1399H121.565L134.39 22.1379V11.1399ZM153.316 15.0999V15.0819C153.292 14.5779 153.097 14.1519 152.729 13.8039C152.374 13.4439 151.93 13.2639 151.397 13.2639H142.391C141.87 13.2639 141.426 13.4439 141.059 13.8039C140.692 14.1519 140.496 14.5779 140.473 15.0819V21.0759C140.496 21.5799 140.692 22.0119 141.059 22.3719C141.426 22.7199 141.87 22.8939 142.391 22.8939H151.397C151.93 22.8939 152.374 22.7199 152.729 22.3719C153.097 22.0119 153.292 21.5799 153.316 21.0759V21.0399H155.483V21.0759C155.471 21.6159 155.358 22.1259 155.145 22.6059C154.932 23.0859 154.636 23.5059 154.257 23.8659C153.89 24.2139 153.458 24.4899 152.96 24.6939C152.475 24.8979 151.954 24.9999 151.397 24.9999H142.391C141.835 24.9999 141.308 24.8979 140.81 24.6939C140.325 24.4899 139.898 24.2139 139.531 23.8659C139.164 23.5059 138.874 23.0859 138.661 22.6059C138.448 22.1259 138.335 21.6159 138.323 21.0759V15.0819C138.335 14.5419 138.448 14.0319 138.661 13.5519C138.874 13.0719 139.164 12.6519 139.531 12.2919C139.898 11.9319 140.325 11.6499 140.81 11.4459C141.308 11.2419 141.835 11.1399 142.391 11.1399H151.397C151.954 11.1399 152.475 11.2419 152.96 11.4459C153.458 11.6499 153.89 11.9319 154.257 12.2919C154.636 12.6519 154.932 13.0719 155.145 13.5519C155.358 14.0319 155.471 14.5419 155.483 15.0819V15.0999H153.316ZM174.301 13.2639H159.415V17.0259H172.613V19.1319H159.415V22.8939H174.301V24.9999H157.266V11.1399H174.301V13.2639Z" fill="black"/>
<path d="M11.1214 2.6729L10.2254 4.45491C9.4831 5.93118 10.0624 7.73771 11.5192 8.4899L13.2778 9.39788C14.7346 10.1501 16.5174 9.5631 17.2597 8.08683L18.1557 6.30482C18.898 4.82855 18.3187 3.02203 16.8619 2.26983L15.1033 1.36185C13.6465 0.609652 11.8637 1.19663 11.1214 2.6729Z" fill="black"/>
<path d="M21.654 13.2615L9.85698 14.3074C8.22814 14.4518 7.02324 15.9069 7.16574 17.5574L7.30155 19.1304C7.44405 20.7809 8.88 22.0019 10.5088 21.8575L22.3059 20.8116C23.9347 20.6672 25.1396 19.2121 24.9971 17.5616L24.8613 15.9886C24.7188 14.3381 23.2829 13.1171 21.654 13.2615Z" fill="black"/>
<path d="M28.6184 26H2.96053C1.32547 26 0 27.3431 0 29V32C0 33.6569 1.32547 35 2.96053 35H28.6184C30.2535 35 31.5789 33.6569 31.5789 32V29C31.5789 27.3431 30.2535 26 28.6184 26Z" fill="black"/>
</g>
<defs>
<clipPath id="clip0_151_143">
<rect width="176.645" height="35" fill="white"/>
</clipPath>
</defs>
</svg>
