<svg width="574" height="324" viewBox="0 0 574 324" fill="none" xmlns="http://www.w3.org/2000/svg">
<g opacity="0.3" filter="url(#filter0_d_1024_2212)">
<rect x="12" y="12" width="550" height="300" rx="10" fill="white"/>
</g>
<path d="M103.478 62.6904V60.499H115.628V62.6904H110.761V76H108.355V62.6904H103.478ZM115.22 70.1455C115.22 68.262 115.71 66.7796 116.691 65.6982C117.68 64.6169 119.029 64.0762 120.741 64.0762C122.445 64.0762 123.788 64.6169 124.769 65.6982C125.758 66.7796 126.252 68.262 126.252 70.1455C126.252 72.0361 125.761 73.5221 124.78 74.6035C123.799 75.6849 122.453 76.2256 120.741 76.2256C119.022 76.2256 117.672 75.6849 116.691 74.6035C115.71 73.5221 115.22 72.0361 115.22 70.1455ZM117.604 70.1455C117.604 71.4274 117.876 72.4193 118.421 73.1211C118.965 73.8229 119.738 74.1738 120.741 74.1738C121.737 74.1738 122.506 73.8229 123.051 73.1211C123.602 72.4121 123.878 71.4202 123.878 70.1455C123.878 68.8779 123.602 67.8932 123.051 67.1914C122.506 66.4824 121.737 66.1279 120.741 66.1279C119.738 66.1279 118.965 66.4788 118.421 67.1807C117.876 67.8825 117.604 68.8708 117.604 70.1455ZM128.046 70.1455C128.046 68.2979 128.483 66.8298 129.357 65.7412C130.237 64.6527 131.419 64.1084 132.901 64.1084C133.704 64.1084 134.423 64.291 135.061 64.6562C135.698 65.0143 136.174 65.5156 136.489 66.1602H136.661V59.7363H138.971V76H136.758V74.1523H136.575C136.224 74.7897 135.723 75.291 135.071 75.6562C134.427 76.0143 133.704 76.1934 132.901 76.1934C131.412 76.1934 130.23 75.6491 129.357 74.5605C128.483 73.472 128.046 72.0003 128.046 70.1455ZM130.431 70.1455C130.431 71.3844 130.706 72.3584 131.258 73.0674C131.816 73.7692 132.583 74.1201 133.557 74.1201C134.531 74.1201 135.297 73.7656 135.856 73.0566C136.421 72.3477 136.704 71.3809 136.704 70.1562C136.704 68.9388 136.421 67.972 135.856 67.2559C135.29 66.5397 134.523 66.1816 133.557 66.1816C132.583 66.1816 131.816 66.5361 131.258 67.2451C130.706 67.9469 130.431 68.9137 130.431 70.1455ZM141.366 72.6914C141.366 71.6458 141.742 70.8258 142.494 70.2314C143.246 69.6299 144.321 69.2861 145.717 69.2002L148.886 69.0176V68.0078C148.886 67.3848 148.682 66.9085 148.274 66.5791C147.866 66.2425 147.271 66.0742 146.491 66.0742C145.846 66.0742 145.309 66.1888 144.879 66.418C144.457 66.64 144.181 66.9587 144.052 67.374H141.818C141.932 66.3714 142.423 65.5729 143.289 64.9785C144.163 64.377 145.266 64.0762 146.598 64.0762C148.059 64.0762 149.187 64.4235 149.982 65.1182C150.784 65.8057 151.185 66.7689 151.185 68.0078V76H148.961V74.3564H148.779C148.428 74.9437 147.944 75.3984 147.328 75.7207C146.72 76.0358 146.032 76.1934 145.266 76.1934C144.12 76.1934 143.182 75.8747 142.451 75.2373C141.728 74.5928 141.366 73.7441 141.366 72.6914ZM144.256 71.3916C143.877 71.6709 143.687 72.0684 143.687 72.584C143.687 73.0996 143.887 73.5078 144.288 73.8086C144.689 74.1022 145.212 74.249 145.857 74.249C146.723 74.249 147.443 74.0055 148.016 73.5186C148.596 73.0316 148.886 72.4229 148.886 71.6924V70.7148L146.029 70.8975C145.227 70.9476 144.636 71.1123 144.256 71.3916ZM152.689 64.3018H155.203L158.135 73.5938H158.318L161.24 64.3018H163.689L159.328 76.4834C158.826 77.9014 158.25 78.8825 157.598 79.4268C156.954 79.971 156.033 80.2432 154.837 80.2432C154.436 80.2432 154.118 80.2253 153.881 80.1895V78.2021C154.046 78.2308 154.297 78.2451 154.633 78.2451C155.185 78.2451 155.625 78.1198 155.955 77.8691C156.284 77.6185 156.549 77.1995 156.749 76.6123L156.921 76.043L152.689 64.3018ZM171.252 79.8887V64.3018H173.475V66.2354H173.647C173.998 65.5693 174.5 65.0501 175.151 64.6777C175.803 64.2982 176.526 64.1084 177.321 64.1084C178.811 64.1084 179.992 64.6527 180.866 65.7412C181.74 66.8226 182.177 68.2907 182.177 70.1455C182.177 72.0003 181.74 73.472 180.866 74.5605C180 75.6491 178.825 76.1934 177.343 76.1934C176.512 76.1934 175.781 76.0215 175.151 75.6777C174.521 75.3268 174.052 74.8434 173.744 74.2275H173.561V79.8887H171.252ZM173.518 70.1562C173.518 71.3737 173.801 72.3405 174.367 73.0566C174.933 73.7656 175.699 74.1201 176.666 74.1201C177.647 74.1201 178.413 73.7692 178.965 73.0674C179.523 72.3584 179.803 71.3844 179.803 70.1455C179.803 68.9066 179.523 67.9362 178.965 67.2344C178.413 66.5326 177.651 66.1816 176.677 66.1816C175.703 66.1816 174.933 66.5397 174.367 67.2559C173.801 67.9648 173.518 68.9316 173.518 70.1562ZM184.551 76V64.3018H186.775V66.0957H186.946C187.111 65.5156 187.487 65.0394 188.074 64.667C188.669 64.2946 189.345 64.1084 190.105 64.1084C190.541 64.1084 190.885 64.1406 191.136 64.2051V66.4824C190.857 66.3893 190.427 66.3428 189.847 66.3428C188.966 66.3428 188.246 66.597 187.688 67.1055C187.136 67.6139 186.86 68.2764 186.86 69.0928V76H184.551ZM192.071 70.1455C192.071 68.262 192.561 66.7796 193.542 65.6982C194.531 64.6169 195.881 64.0762 197.592 64.0762C199.297 64.0762 200.639 64.6169 201.62 65.6982C202.609 66.7796 203.103 68.262 203.103 70.1455C203.103 72.0361 202.612 73.5221 201.631 74.6035C200.65 75.6849 199.304 76.2256 197.592 76.2256C195.873 76.2256 194.523 75.6849 193.542 74.6035C192.561 73.5221 192.071 72.0361 192.071 70.1455ZM194.455 70.1455C194.455 71.4274 194.728 72.4193 195.272 73.1211C195.816 73.8229 196.589 74.1738 197.592 74.1738C198.588 74.1738 199.357 73.8229 199.902 73.1211C200.453 72.4121 200.729 71.4202 200.729 70.1455C200.729 68.8779 200.453 67.8932 199.902 67.1914C199.357 66.4824 198.588 66.1279 197.592 66.1279C196.589 66.1279 195.816 66.4788 195.272 67.1807C194.728 67.8825 194.455 68.8708 194.455 70.1455ZM204.886 70.0166C204.886 68.2262 205.323 66.7939 206.197 65.7197C207.07 64.6455 208.252 64.1084 209.742 64.1084C210.544 64.1084 211.274 64.2946 211.933 64.667C212.592 65.0322 213.086 65.5335 213.416 66.1709H213.598V64.3018H215.811V76.0967C215.811 77.4359 215.324 78.4993 214.35 79.2871C213.376 80.0749 212.062 80.4688 210.408 80.4688C208.961 80.4688 207.787 80.168 206.884 79.5664C205.982 78.972 205.47 78.1735 205.348 77.1709H207.711C207.812 77.6006 208.098 77.9408 208.571 78.1914C209.051 78.4421 209.674 78.5674 210.44 78.5674C211.4 78.5674 212.148 78.349 212.685 77.9121C213.229 77.4824 213.501 76.8809 213.501 76.1074V73.8623H213.33C212.979 74.4925 212.492 74.9795 211.869 75.3232C211.246 75.6598 210.529 75.8281 209.72 75.8281C208.238 75.8281 207.06 75.3018 206.186 74.249C205.32 73.1891 204.886 71.7783 204.886 70.0166ZM208.087 67.2129C207.543 67.8932 207.271 68.8242 207.271 70.0059C207.271 71.1875 207.543 72.1221 208.087 72.8096C208.632 73.4899 209.394 73.8301 210.376 73.8301C211.357 73.8301 212.13 73.4863 212.696 72.7988C213.262 72.1113 213.544 71.1803 213.544 70.0059C213.544 68.8385 213.262 67.9111 212.696 67.2236C212.13 66.529 211.357 66.1816 210.376 66.1816C209.394 66.1816 208.632 66.5254 208.087 67.2129ZM218.755 76V64.3018H220.978V66.0957H221.15C221.315 65.5156 221.691 65.0394 222.278 64.667C222.872 64.2946 223.549 64.1084 224.308 64.1084C224.745 64.1084 225.089 64.1406 225.34 64.2051V66.4824C225.06 66.3893 224.631 66.3428 224.051 66.3428C223.17 66.3428 222.45 66.597 221.891 67.1055C221.34 67.6139 221.064 68.2764 221.064 69.0928V76H218.755ZM226.403 72.6914C226.403 71.6458 226.779 70.8258 227.531 70.2314C228.283 69.6299 229.357 69.2861 230.754 69.2002L233.923 69.0176V68.0078C233.923 67.3848 233.719 66.9085 233.31 66.5791C232.902 66.2425 232.308 66.0742 231.527 66.0742C230.883 66.0742 230.346 66.1888 229.916 66.418C229.493 66.64 229.218 66.9587 229.089 67.374H226.854C226.969 66.3714 227.46 65.5729 228.326 64.9785C229.2 64.377 230.303 64.0762 231.635 64.0762C233.096 64.0762 234.224 64.4235 235.018 65.1182C235.821 65.8057 236.222 66.7689 236.222 68.0078V76H233.998V74.3564H233.815C233.464 74.9437 232.981 75.3984 232.365 75.7207C231.756 76.0358 231.069 76.1934 230.303 76.1934C229.157 76.1934 228.219 75.8747 227.488 75.2373C226.765 74.5928 226.403 73.7441 226.403 72.6914ZM229.293 71.3916C228.913 71.6709 228.724 72.0684 228.724 72.584C228.724 73.0996 228.924 73.5078 229.325 73.8086C229.726 74.1022 230.249 74.249 230.893 74.249C231.76 74.249 232.48 74.0055 233.053 73.5186C233.633 73.0316 233.923 72.4229 233.923 71.6924V70.7148L231.065 70.8975C230.263 70.9476 229.672 71.1123 229.293 71.3916ZM238.531 72.8955H240.841C240.991 73.3538 241.281 73.7119 241.711 73.9697C242.141 74.2275 242.699 74.3564 243.387 74.3564C244.11 74.3564 244.701 74.2096 245.159 73.916C245.618 73.6224 245.847 73.2428 245.847 72.7773C245.847 72.097 245.274 71.6208 244.128 71.3486L242.087 70.876C240.97 70.611 240.146 70.2171 239.616 69.6943C239.094 69.1715 238.832 68.4769 238.832 67.6104C238.832 66.5791 239.258 65.734 240.111 65.0752C240.963 64.4092 242.051 64.0762 243.376 64.0762C244.694 64.0762 245.757 64.3662 246.567 64.9463C247.376 65.5264 247.838 66.332 247.952 67.3633H245.739C245.632 66.9264 245.371 66.5827 244.955 66.332C244.547 66.0814 244.021 65.9561 243.376 65.9561C242.724 65.9561 242.184 66.0993 241.754 66.3857C241.324 66.665 241.11 67.0303 241.11 67.4814C241.11 67.8324 241.26 68.1224 241.561 68.3516C241.861 68.5807 242.331 68.7669 242.968 68.9102L244.912 69.3613C246.037 69.6191 246.86 70.0023 247.383 70.5107C247.913 71.0192 248.178 71.6995 248.178 72.5518C248.178 73.6403 247.723 74.5247 246.814 75.2051C245.904 75.8854 244.744 76.2256 243.333 76.2256C241.944 76.2256 240.819 75.932 239.96 75.3447C239.108 74.7503 238.632 73.9339 238.531 72.8955ZM249.768 72.8955H252.077C252.228 73.3538 252.518 73.7119 252.948 73.9697C253.377 74.2275 253.936 74.3564 254.623 74.3564C255.347 74.3564 255.938 74.2096 256.396 73.916C256.854 73.6224 257.083 73.2428 257.083 72.7773C257.083 72.097 256.51 71.6208 255.365 71.3486L253.324 70.876C252.206 70.611 251.383 70.2171 250.853 69.6943C250.33 69.1715 250.069 68.4769 250.069 67.6104C250.069 66.5791 250.495 65.734 251.347 65.0752C252.199 64.4092 253.288 64.0762 254.613 64.0762C255.93 64.0762 256.994 64.3662 257.803 64.9463C258.612 65.5264 259.074 66.332 259.189 67.3633H256.976C256.868 66.9264 256.607 66.5827 256.192 66.332C255.784 66.0814 255.257 65.9561 254.613 65.9561C253.961 65.9561 253.42 66.0993 252.991 66.3857C252.561 66.665 252.346 67.0303 252.346 67.4814C252.346 67.8324 252.496 68.1224 252.797 68.3516C253.098 68.5807 253.567 68.7669 254.204 68.9102L256.149 69.3613C257.273 69.6191 258.097 70.0023 258.619 70.5107C259.149 71.0192 259.414 71.6995 259.414 72.5518C259.414 73.6403 258.96 74.5247 258.05 75.2051C257.141 75.8854 255.98 76.2256 254.57 76.2256C253.18 76.2256 252.056 75.932 251.197 75.3447C250.344 74.7503 249.868 73.9339 249.768 72.8955Z" fill="black"/>
<rect x="94" y="106" width="386" height="30" rx="8" fill="#EFEFEF"/>
<path d="M94 114C94 109.582 97.5817 106 102 106H287V136H102C97.5817 136 94 132.418 94 128V114Z" fill="black"/>
<path d="M237.908 124.914H239.572C239.64 125.461 239.882 125.901 240.299 126.234C240.715 126.568 241.234 126.734 241.853 126.734C242.556 126.734 243.124 126.521 243.556 126.094C243.989 125.667 244.205 125.102 244.205 124.398C244.205 123.695 243.989 123.125 243.556 122.688C243.124 122.245 242.564 122.023 241.877 122.023C241.398 122.023 240.968 122.125 240.588 122.328C240.207 122.531 239.908 122.815 239.689 123.18H238.088L238.681 116.727H245.26V118.289H240.049L239.752 121.594H239.885C240.416 120.911 241.21 120.57 242.267 120.57C243.34 120.57 244.215 120.924 244.892 121.633C245.575 122.336 245.916 123.242 245.916 124.352C245.916 125.518 245.538 126.464 244.783 127.188C244.033 127.911 243.051 128.273 241.838 128.273C240.718 128.273 239.796 127.961 239.072 127.336C238.348 126.711 237.96 125.904 237.908 124.914ZM247.492 122.352C247.492 120.492 247.859 119.044 248.594 118.008C249.328 116.971 250.352 116.453 251.664 116.453C252.966 116.453 253.984 116.974 254.719 118.016C255.453 119.052 255.82 120.503 255.82 122.367C255.82 124.237 255.456 125.69 254.727 126.727C253.997 127.758 252.977 128.273 251.664 128.273C250.346 128.273 249.32 127.755 248.586 126.719C247.857 125.682 247.492 124.227 247.492 122.352ZM249.258 122.352C249.258 123.768 249.466 124.854 249.883 125.609C250.299 126.365 250.893 126.742 251.664 126.742C252.435 126.742 253.026 126.367 253.438 125.617C253.849 124.862 254.055 123.773 254.055 122.352C254.055 120.945 253.846 119.867 253.43 119.117C253.013 118.362 252.424 117.984 251.664 117.984C250.904 117.984 250.312 118.362 249.891 119.117C249.469 119.872 249.258 120.951 249.258 122.352ZM257.03 119.281C257.03 118.458 257.259 117.789 257.717 117.273C258.181 116.758 258.78 116.5 259.514 116.5C260.248 116.5 260.845 116.758 261.303 117.273C261.766 117.789 261.998 118.458 261.998 119.281C261.998 120.104 261.766 120.773 261.303 121.289C260.845 121.805 260.248 122.062 259.514 122.062C258.785 122.062 258.188 121.805 257.725 121.289C257.261 120.768 257.03 120.099 257.03 119.281ZM258.014 128L262.303 122.109L266.053 116.727H267.756L263.397 122.695L259.725 128H258.014ZM258.74 118.141C258.548 118.422 258.451 118.799 258.451 119.273C258.451 119.747 258.548 120.128 258.74 120.414C258.933 120.701 259.191 120.844 259.514 120.844C259.837 120.844 260.095 120.701 260.287 120.414C260.48 120.128 260.576 119.747 260.576 119.273C260.576 118.789 260.48 118.409 260.287 118.133C260.1 117.857 259.842 117.719 259.514 117.719C259.191 117.719 258.933 117.859 258.74 118.141ZM263.717 125.438C263.717 124.62 263.949 123.953 264.412 123.438C264.876 122.922 265.475 122.664 266.209 122.664C266.944 122.664 267.54 122.922 267.998 123.438C268.462 123.953 268.694 124.62 268.694 125.438C268.694 126.26 268.462 126.932 267.998 127.453C267.54 127.969 266.944 128.227 266.209 128.227C265.475 128.227 264.876 127.969 264.412 127.453C263.949 126.932 263.717 126.26 263.717 125.438ZM265.436 124.305C265.243 124.586 265.147 124.964 265.147 125.438C265.147 125.911 265.243 126.292 265.436 126.578C265.628 126.865 265.886 127.008 266.209 127.008C266.527 127.008 266.782 126.867 266.975 126.586C267.168 126.299 267.264 125.917 267.264 125.438C267.264 124.953 267.168 124.573 266.975 124.297C266.787 124.021 266.532 123.883 266.209 123.883C265.886 123.883 265.628 124.023 265.436 124.305Z" fill="white"/>
<path d="M80.2832 195.69V193.499H92.4326V195.69H87.5664V209H85.1601V195.69H80.2832ZM92.0246 203.146C92.0246 201.262 92.5151 199.78 93.4963 198.698C94.4845 197.617 95.8345 197.076 97.5461 197.076C99.2505 197.076 100.593 197.617 101.574 198.698C102.563 199.78 103.057 201.262 103.057 203.146C103.057 205.036 102.566 206.522 101.585 207.604C100.604 208.685 99.2577 209.226 97.5461 209.226C95.8273 209.226 94.4774 208.685 93.4963 207.604C92.5151 206.522 92.0246 205.036 92.0246 203.146ZM94.4093 203.146C94.4093 204.427 94.6815 205.419 95.2258 206.121C95.77 206.823 96.5435 207.174 97.5461 207.174C98.5415 207.174 99.3114 206.823 99.8556 206.121C100.407 205.412 100.683 204.42 100.683 203.146C100.683 201.878 100.407 200.893 99.8556 200.191C99.3114 199.482 98.5415 199.128 97.5461 199.128C96.5435 199.128 95.77 199.479 95.2258 200.181C94.6815 200.882 94.4093 201.871 94.4093 203.146ZM104.389 199.3V197.355H106.247V194.391H108.557V197.355H111.092V199.3H108.557V205.315C108.557 205.924 108.689 206.372 108.954 206.658C109.219 206.938 109.638 207.077 110.211 207.077C110.44 207.077 110.734 207.059 111.092 207.023V208.946C110.634 209.025 110.215 209.064 109.835 209.064C108.553 209.064 107.633 208.821 107.075 208.334C106.523 207.847 106.247 207.038 106.247 205.906V199.3H104.389ZM112.736 205.691C112.736 204.646 113.112 203.826 113.864 203.231C114.616 202.63 115.69 202.286 117.087 202.2L120.255 202.018V201.008C120.255 200.385 120.051 199.909 119.643 199.579C119.235 199.243 118.641 199.074 117.86 199.074C117.215 199.074 116.678 199.189 116.249 199.418C115.826 199.64 115.55 199.959 115.421 200.374H113.187C113.302 199.371 113.792 198.573 114.659 197.979C115.532 197.377 116.635 197.076 117.967 197.076C119.428 197.076 120.556 197.424 121.351 198.118C122.153 198.806 122.554 199.769 122.554 201.008V209H120.331V207.356H120.148C119.797 207.944 119.314 208.398 118.698 208.721C118.089 209.036 117.402 209.193 116.635 209.193C115.49 209.193 114.551 208.875 113.821 208.237C113.098 207.593 112.736 206.744 112.736 205.691ZM115.626 204.392C115.246 204.671 115.056 205.068 115.056 205.584C115.056 206.1 115.257 206.508 115.658 206.809C116.059 207.102 116.582 207.249 117.226 207.249C118.093 207.249 118.812 207.006 119.385 206.519C119.965 206.032 120.255 205.423 120.255 204.692V203.715L117.398 203.897C116.596 203.948 116.005 204.112 115.626 204.392ZM125.541 209V192.736H127.85V209H125.541ZM135.478 199.3V197.355H137.336V194.391H139.646V197.355H142.181V199.3H139.646V205.315C139.646 205.924 139.778 206.372 140.043 206.658C140.308 206.938 140.727 207.077 141.3 207.077C141.529 207.077 141.823 207.059 142.181 207.023V208.946C141.723 209.025 141.304 209.064 140.924 209.064C139.642 209.064 138.722 208.821 138.163 208.334C137.612 207.847 137.336 207.038 137.336 205.906V199.3H135.478ZM143.825 205.691C143.825 204.646 144.201 203.826 144.953 203.231C145.705 202.63 146.779 202.286 148.175 202.2L151.344 202.018V201.008C151.344 200.385 151.14 199.909 150.732 199.579C150.324 199.243 149.729 199.074 148.949 199.074C148.304 199.074 147.767 199.189 147.337 199.418C146.915 199.64 146.639 199.959 146.51 200.374H144.276C144.39 199.371 144.881 198.573 145.747 197.979C146.621 197.377 147.724 197.076 149.056 197.076C150.517 197.076 151.645 197.424 152.44 198.118C153.242 198.806 153.643 199.769 153.643 201.008V209H151.419V207.356H151.237C150.886 207.944 150.402 208.398 149.787 208.721C149.178 209.036 148.49 209.193 147.724 209.193C146.578 209.193 145.64 208.875 144.91 208.237C144.186 207.593 143.825 206.744 143.825 205.691ZM146.714 204.392C146.335 204.671 146.145 205.068 146.145 205.584C146.145 206.1 146.345 206.508 146.747 206.809C147.148 207.102 147.67 207.249 148.315 207.249C149.181 207.249 149.901 207.006 150.474 206.519C151.054 206.032 151.344 205.423 151.344 204.692V203.715L148.487 203.897C147.685 203.948 147.094 204.112 146.714 204.392ZM155.953 205.896H158.262C158.413 206.354 158.703 206.712 159.132 206.97C159.562 207.228 160.121 207.356 160.808 207.356C161.532 207.356 162.122 207.21 162.581 206.916C163.039 206.622 163.268 206.243 163.268 205.777C163.268 205.097 162.695 204.621 161.549 204.349L159.508 203.876C158.391 203.611 157.568 203.217 157.038 202.694C156.515 202.172 156.254 201.477 156.254 200.61C156.254 199.579 156.68 198.734 157.532 198.075C158.384 197.409 159.473 197.076 160.797 197.076C162.115 197.076 163.179 197.366 163.988 197.946C164.797 198.526 165.259 199.332 165.374 200.363H163.161C163.053 199.926 162.792 199.583 162.377 199.332C161.968 199.081 161.442 198.956 160.797 198.956C160.146 198.956 159.605 199.099 159.175 199.386C158.746 199.665 158.531 200.03 158.531 200.481C158.531 200.832 158.681 201.122 158.982 201.352C159.283 201.581 159.752 201.767 160.389 201.91L162.334 202.361C163.458 202.619 164.282 203.002 164.804 203.511C165.334 204.019 165.599 204.7 165.599 205.552C165.599 206.64 165.144 207.525 164.235 208.205C163.325 208.885 162.165 209.226 160.755 209.226C159.365 209.226 158.241 208.932 157.381 208.345C156.529 207.75 156.053 206.934 155.953 205.896ZM168.081 209V192.736H170.39V202.179H170.573L175.214 197.302H177.942L173.13 202.318L178.264 209H175.429L171.411 203.844L170.39 204.811V209H168.081ZM178.963 205.896H181.272C181.423 206.354 181.713 206.712 182.143 206.97C182.572 207.228 183.131 207.356 183.818 207.356C184.542 207.356 185.133 207.21 185.591 206.916C186.049 206.622 186.278 206.243 186.278 205.777C186.278 205.097 185.705 204.621 184.56 204.349L182.519 203.876C181.401 203.611 180.578 203.217 180.048 202.694C179.525 202.172 179.264 201.477 179.264 200.61C179.264 199.579 179.69 198.734 180.542 198.075C181.394 197.409 182.483 197.076 183.808 197.076C185.125 197.076 186.189 197.366 186.998 197.946C187.807 198.526 188.269 199.332 188.384 200.363H186.171C186.064 199.926 185.802 199.583 185.387 199.332C184.979 199.081 184.452 198.956 183.808 198.956C183.156 198.956 182.615 199.099 182.186 199.386C181.756 199.665 181.541 200.03 181.541 200.481C181.541 200.832 181.691 201.122 181.992 201.352C182.293 201.581 182.762 201.767 183.399 201.91L185.344 202.361C186.468 202.619 187.292 203.002 187.814 203.511C188.344 204.019 188.609 204.7 188.609 205.552C188.609 206.64 188.155 207.525 187.245 208.205C186.336 208.885 185.175 209.226 183.765 209.226C182.375 209.226 181.251 208.932 180.392 208.345C179.539 207.75 179.063 206.934 178.963 205.896Z" fill="black"/>
<path d="M110.922 243.01V242.98C110.922 241.685 111.365 240.627 112.25 239.807C113.136 238.98 114.272 238.566 115.659 238.566C117 238.566 118.11 238.947 118.989 239.709C119.868 240.471 120.307 241.431 120.307 242.59C120.307 243.339 120.086 244.081 119.643 244.816C119.207 245.546 118.4 246.506 117.221 247.697L114.086 250.871V251.037H120.532V253H111.04V251.418L115.805 246.457C116.743 245.48 117.368 244.745 117.68 244.25C117.993 243.749 118.149 243.238 118.149 242.717C118.149 242.072 117.905 241.535 117.416 241.105C116.928 240.676 116.319 240.461 115.59 240.461C114.816 240.461 114.187 240.692 113.706 241.154C113.23 241.617 112.993 242.225 112.993 242.98V243.01H110.922Z" fill="#8E8E8E"/>
<path d="M126.532 256.008L131.679 238.215H133.583L128.436 256.008H126.532ZM139.437 243.762V241.525L143.148 238.908H145.326V253H143.138V241.262H142.972L139.437 243.762ZM148.785 245.939C148.785 243.615 149.244 241.805 150.162 240.51C151.08 239.214 152.359 238.566 154 238.566C155.627 238.566 156.9 239.217 157.818 240.52C158.736 241.815 159.195 243.628 159.195 245.959C159.195 248.296 158.739 250.113 157.828 251.408C156.916 252.697 155.64 253.342 154 253.342C152.352 253.342 151.07 252.694 150.152 251.398C149.24 250.103 148.785 248.283 148.785 245.939ZM150.992 245.939C150.992 247.71 151.252 249.068 151.773 250.012C152.294 250.956 153.036 251.428 154 251.428C154.963 251.428 155.702 250.959 156.216 250.021C156.731 249.077 156.988 247.717 156.988 245.939C156.988 244.182 156.727 242.834 156.207 241.896C155.686 240.952 154.95 240.48 154 240.48C153.049 240.48 152.31 240.952 151.783 241.896C151.255 242.84 150.992 244.188 150.992 245.939Z" fill="black"/>
<line x1="226.5" y1="186" x2="226.5" y2="269" stroke="#C8C8C8"/>
<line x1="382.5" y1="186" x2="382.5" y2="269" stroke="#C8C8C8"/>
<path d="M271.934 204.832H274.319C274.419 205.57 274.802 206.157 275.468 206.594C276.141 207.023 276.997 207.238 278.036 207.238C279.002 207.238 279.801 207.016 280.431 206.572C281.069 206.121 281.387 205.552 281.387 204.864C281.387 204.277 281.151 203.797 280.678 203.425C280.213 203.045 279.464 202.734 278.433 202.49L276.435 202.007C275.031 201.677 274 201.165 273.341 200.471C272.682 199.776 272.353 198.859 272.353 197.721C272.353 196.339 272.869 195.229 273.9 194.391C274.938 193.546 276.303 193.123 277.993 193.123C279.568 193.123 280.875 193.538 281.914 194.369C282.952 195.2 283.507 196.267 283.579 197.57H281.237C281.122 196.854 280.771 196.288 280.184 195.873C279.604 195.458 278.863 195.25 277.96 195.25C277.008 195.25 276.242 195.461 275.662 195.884C275.082 196.306 274.791 196.865 274.791 197.56C274.791 198.111 275.01 198.559 275.447 198.902C275.891 199.246 276.618 199.536 277.627 199.772L279.335 200.191C280.925 200.564 282.071 201.094 282.773 201.781C283.475 202.462 283.826 203.385 283.826 204.553C283.826 206.035 283.289 207.21 282.214 208.076C281.14 208.943 279.686 209.376 277.853 209.376C276.134 209.376 274.738 208.964 273.664 208.141C272.596 207.317 272.02 206.214 271.934 204.832ZM285.276 199.3V197.355H287.134V194.391H289.444V197.355H291.979V199.3H289.444V205.315C289.444 205.924 289.577 206.372 289.841 206.658C290.106 206.938 290.525 207.077 291.098 207.077C291.327 207.077 291.621 207.059 291.979 207.023V208.946C291.521 209.025 291.102 209.064 290.722 209.064C289.44 209.064 288.52 208.821 287.962 208.334C287.41 207.847 287.134 207.038 287.134 205.906V199.3H285.276ZM293.623 205.691C293.623 204.646 293.999 203.826 294.751 203.231C295.503 202.63 296.577 202.286 297.974 202.2L301.142 202.018V201.008C301.142 200.385 300.938 199.909 300.53 199.579C300.122 199.243 299.528 199.074 298.747 199.074C298.102 199.074 297.565 199.189 297.136 199.418C296.713 199.64 296.437 199.959 296.308 200.374H294.074C294.189 199.371 294.679 198.573 295.546 197.979C296.419 197.377 297.522 197.076 298.854 197.076C300.315 197.076 301.443 197.424 302.238 198.118C303.04 198.806 303.441 199.769 303.441 201.008V209H301.218V207.356H301.035C300.684 207.944 300.201 208.398 299.585 208.721C298.976 209.036 298.289 209.193 297.522 209.193C296.377 209.193 295.438 208.875 294.708 208.237C293.985 207.593 293.623 206.744 293.623 205.691ZM296.513 204.392C296.133 204.671 295.943 205.068 295.943 205.584C295.943 206.1 296.144 206.508 296.545 206.809C296.946 207.102 297.469 207.249 298.113 207.249C298.98 207.249 299.699 207.006 300.272 206.519C300.852 206.032 301.142 205.423 301.142 204.692V203.715L298.285 203.897C297.483 203.948 296.892 204.112 296.513 204.392ZM305.278 199.3V197.355H307.137V194.391H309.446V197.355H311.982V199.3H309.446V205.315C309.446 205.924 309.579 206.372 309.844 206.658C310.109 206.938 310.528 207.077 311.101 207.077C311.33 207.077 311.623 207.059 311.982 207.023V208.946C311.523 209.025 311.104 209.064 310.725 209.064C309.443 209.064 308.523 208.821 307.964 208.334C307.413 207.847 307.137 207.038 307.137 205.906V199.3H305.278ZM314.184 204.896V197.302H316.493V204.295C316.493 205.247 316.69 205.953 317.084 206.411C317.485 206.862 318.108 207.088 318.953 207.088C319.877 207.088 320.59 206.83 321.091 206.314C321.592 205.792 321.843 205.068 321.843 204.145V197.302H324.153V209H321.929V207.142H321.746C321.152 208.531 319.974 209.226 318.212 209.226C316.923 209.226 315.928 208.85 315.226 208.098C314.531 207.346 314.184 206.279 314.184 204.896ZM326.527 205.896H328.836C328.987 206.354 329.277 206.712 329.707 206.97C330.136 207.228 330.695 207.356 331.382 207.356C332.106 207.356 332.696 207.21 333.155 206.916C333.613 206.622 333.842 206.243 333.842 205.777C333.842 205.097 333.269 204.621 332.124 204.349L330.083 203.876C328.965 203.611 328.142 203.217 327.612 202.694C327.089 202.172 326.828 201.477 326.828 200.61C326.828 199.579 327.254 198.734 328.106 198.075C328.958 197.409 330.047 197.076 331.372 197.076C332.689 197.076 333.753 197.366 334.562 197.946C335.371 198.526 335.833 199.332 335.948 200.363H333.735C333.627 199.926 333.366 199.583 332.951 199.332C332.542 199.081 332.016 198.956 331.372 198.956C330.72 198.956 330.179 199.099 329.75 199.386C329.32 199.665 329.105 200.03 329.105 200.481C329.105 200.832 329.255 201.122 329.556 201.352C329.857 201.581 330.326 201.767 330.963 201.91L332.908 202.361C334.032 202.619 334.856 203.002 335.378 203.511C335.908 204.019 336.173 204.7 336.173 205.552C336.173 206.64 335.719 207.525 334.809 208.205C333.9 208.885 332.739 209.226 331.329 209.226C329.939 209.226 328.815 208.932 327.956 208.345C327.103 207.75 326.627 206.934 326.527 205.896Z" fill="black"/>
<rect x="263.25" y="230.25" width="81.5" height="28.5" rx="4.75" fill="white" stroke="#C8C8C8" stroke-width="0.5"/>
<path d="M295.588 237.908H297.863L300.451 248.699H300.588L303.527 237.908H305.558L308.517 248.699H308.654L311.232 237.908H313.508L309.699 252H307.638L304.611 241.658H304.474L301.457 252H299.387L295.588 237.908ZM315.746 252V237.908H317.934V252H315.746ZM321.061 252V237.908H326.578C327.959 237.908 329.078 238.344 329.938 239.217C330.797 240.083 331.227 241.212 331.227 242.605C331.227 243.979 330.787 245.099 329.908 245.965C329.03 246.824 327.897 247.254 326.51 247.254H323.248V252H321.061ZM323.248 245.33H326.002C326.946 245.33 327.679 245.096 328.199 244.627C328.727 244.152 328.99 243.478 328.99 242.605C328.99 241.714 328.733 241.03 328.219 240.555C327.705 240.079 326.966 239.842 326.002 239.842H323.248V245.33Z" fill="#FF5959"/>
<rect x="270" y="236" width="16" height="16" rx="8" fill="#FF5959"/>
<path d="M429.999 209V193.499H436.23C437.684 193.499 438.822 193.846 439.646 194.541C440.477 195.229 440.892 196.17 440.892 197.366C440.892 198.175 440.631 198.902 440.108 199.547C439.585 200.184 438.941 200.567 438.174 200.696V200.879C439.22 200.986 440.061 201.384 440.699 202.071C441.343 202.752 441.666 203.597 441.666 204.606C441.666 205.974 441.196 207.049 440.258 207.829C439.32 208.61 438.024 209 436.37 209H429.999ZM432.406 206.959H435.886C436.968 206.959 437.791 206.744 438.357 206.314C438.923 205.885 439.206 205.258 439.206 204.435C439.206 203.625 438.912 203.013 438.325 202.598C437.737 202.175 436.878 201.964 435.747 201.964H432.406V206.959ZM432.406 200.062H435.263C436.323 200.062 437.125 199.873 437.669 199.493C438.221 199.106 438.497 198.544 438.497 197.807C438.497 197.09 438.246 196.535 437.745 196.142C437.25 195.741 436.559 195.54 435.671 195.54H432.406V200.062ZM444.083 209V197.302H446.306V199.096H446.478C446.643 198.516 447.019 198.039 447.606 197.667C448.201 197.295 448.877 197.108 449.636 197.108C450.073 197.108 450.417 197.141 450.668 197.205V199.482C450.388 199.389 449.959 199.343 449.379 199.343C448.498 199.343 447.778 199.597 447.219 200.105C446.668 200.614 446.392 201.276 446.392 202.093V209H444.083ZM453.042 207.614C452.082 206.533 451.602 205.058 451.602 203.188C451.602 201.319 452.089 199.833 453.063 198.73C454.037 197.628 455.348 197.076 456.995 197.076C458.621 197.076 459.895 197.599 460.819 198.645C461.75 199.69 462.216 201.133 462.216 202.974V203.779H453.955V203.908C453.991 204.939 454.288 205.756 454.847 206.357C455.405 206.959 456.146 207.26 457.07 207.26C458.481 207.26 459.408 206.787 459.852 205.842H462.076C461.811 206.895 461.231 207.722 460.336 208.323C459.448 208.925 458.338 209.226 457.006 209.226C455.33 209.226 454.009 208.688 453.042 207.614ZM453.955 202.071H459.863C459.835 201.147 459.559 200.413 459.036 199.869C458.52 199.318 457.836 199.042 456.984 199.042C456.132 199.042 455.43 199.318 454.879 199.869C454.327 200.421 454.019 201.155 453.955 202.071ZM463.913 205.691C463.913 204.646 464.289 203.826 465.041 203.231C465.793 202.63 466.867 202.286 468.264 202.2L471.433 202.018V201.008C471.433 200.385 471.229 199.909 470.82 199.579C470.412 199.243 469.818 199.074 469.037 199.074C468.393 199.074 467.856 199.189 467.426 199.418C467.003 199.64 466.728 199.959 466.599 200.374H464.364C464.479 199.371 464.97 198.573 465.836 197.979C466.71 197.377 467.813 197.076 469.145 197.076C470.606 197.076 471.734 197.424 472.528 198.118C473.331 198.806 473.732 199.769 473.732 201.008V209H471.508V207.356H471.325C470.974 207.944 470.491 208.398 469.875 208.721C469.266 209.036 468.579 209.193 467.813 209.193C466.667 209.193 465.729 208.875 464.998 208.237C464.275 207.593 463.913 206.744 463.913 205.691ZM466.803 204.392C466.423 204.671 466.234 205.068 466.234 205.584C466.234 206.1 466.434 206.508 466.835 206.809C467.236 207.102 467.759 207.249 468.403 207.249C469.27 207.249 469.99 207.006 470.563 206.519C471.143 206.032 471.433 205.423 471.433 204.692V203.715L468.575 203.897C467.773 203.948 467.182 204.112 466.803 204.392ZM476.718 209V192.736H479.028V202.179H479.21L483.851 197.302H486.579L481.767 202.318L486.902 209H484.066L480.048 203.844L479.028 204.811V209H476.718Z" fill="black"/>
<path d="M448.795 240.939C448.795 238.615 449.254 236.805 450.172 235.51C451.09 234.214 452.369 233.566 454.01 233.566C455.637 233.566 456.91 234.217 457.828 235.52C458.746 236.815 459.205 238.628 459.205 240.959C459.205 243.296 458.749 245.113 457.838 246.408C456.926 247.697 455.65 248.342 454.01 248.342C452.363 248.342 451.08 247.694 450.162 246.398C449.251 245.103 448.795 243.283 448.795 240.939ZM451.002 240.939C451.002 242.71 451.262 244.068 451.783 245.012C452.304 245.956 453.046 246.428 454.01 246.428C454.973 246.428 455.712 245.959 456.227 245.021C456.741 244.077 456.998 242.717 456.998 240.939C456.998 239.182 456.738 237.834 456.217 236.896C455.696 235.952 454.96 235.48 454.01 235.48C453.059 235.48 452.32 235.952 451.793 236.896C451.266 237.84 451.002 239.188 451.002 240.939Z" fill="#8E8E8E"/>
<defs>
<filter id="filter0_d_1024_2212" x="0" y="0" width="574" height="324" filterUnits="userSpaceOnUse" color-interpolation-filters="sRGB">
<feFlood flood-opacity="0" result="BackgroundImageFix"/>
<feColorMatrix in="SourceAlpha" type="matrix" values="0 0 0 0 0 0 0 0 0 0 0 0 0 0 0 0 0 0 127 0" result="hardAlpha"/>
<feMorphology radius="4" operator="dilate" in="SourceAlpha" result="effect1_dropShadow_1024_2212"/>
<feOffset/>
<feGaussianBlur stdDeviation="4"/>
<feComposite in2="hardAlpha" operator="out"/>
<feColorMatrix type="matrix" values="0 0 0 0 0.9375 0 0 0 0 0.9375 0 0 0 0 0.9375 0 0 0 0.71 0"/>
<feBlend mode="normal" in2="BackgroundImageFix" result="effect1_dropShadow_1024_2212"/>
<feBlend mode="normal" in="SourceGraphic" in2="effect1_dropShadow_1024_2212" result="shape"/>
</filter>
</defs>
</svg>
